<svg width="229" height="45" viewBox="0 0 229 45" fill="none" xmlns="http://www.w3.org/2000/svg">
<g clip-path="url(#clip0_0_199)">
<path d="M64.8489 37.7982C67.9167 37.8031 70.867 36.619 73.0803 34.4946L69.7051 31.1195C68.382 32.3388 66.6481 33.015 64.8489 33.0135C63.9061 33.0179 62.9718 32.836 62.0996 32.4782C61.2274 32.1205 60.4344 31.5939 59.7662 30.9288C59.0981 30.2637 58.5679 29.4732 58.2061 28.6026C57.8444 27.732 57.6581 26.7986 57.6581 25.8558C57.6581 24.9131 57.8444 23.9796 58.2061 23.1091C58.5679 22.2385 59.0981 21.4479 59.7662 20.7828C60.4344 20.1178 61.2274 19.5912 62.0996 19.2335C62.9718 18.8757 63.9061 18.6938 64.8489 18.6981C66.6546 18.6951 68.3927 19.3849 69.7051 20.6252L73.0803 17.217C70.867 15.0927 67.9167 13.9086 64.8489 13.9135C61.68 13.9178 58.6421 15.1786 56.4014 17.4194C54.1606 19.6601 52.8999 22.698 52.8955 25.8669C52.9057 29.0319 54.169 32.0641 56.4092 34.3001C58.6493 36.5361 61.6838 37.7939 64.8489 37.7982Z" fill="white"/>
<path d="M100.032 25.8448C100.027 22.6759 98.7667 19.6381 96.5259 17.3973C94.2852 15.1566 91.2473 13.8958 88.0784 13.8915C84.9114 13.8988 81.8764 15.1608 79.638 17.4012C77.3997 19.6417 76.1404 22.6779 76.1361 25.8448C76.1404 29.0118 77.3997 32.048 79.638 34.2885C81.8764 36.5289 84.9114 37.791 88.0784 37.7982C91.2473 37.7939 94.2852 36.5331 96.5259 34.2923C98.7667 32.0516 100.027 29.0137 100.032 25.8448ZM88.0784 33.0411C87.1334 33.0411 86.1976 32.855 85.3245 32.4933C84.4514 32.1317 83.6581 31.6016 82.9899 30.9334C82.3217 30.2651 81.7916 29.4718 81.43 28.5987C81.0683 27.7257 80.8822 26.7899 80.8822 25.8448C80.8822 24.9016 81.0686 23.9677 81.4307 23.0968C81.7928 22.2258 82.3235 21.4351 82.9922 20.7699C83.661 20.1047 84.4546 19.5783 85.3274 19.2209C86.2003 18.8634 87.1352 18.682 88.0784 18.6871C89.9768 18.6871 91.7974 19.4412 93.1397 20.7836C94.482 22.1259 95.2361 23.9465 95.2361 25.8448C95.2412 26.788 95.0598 27.723 94.7024 28.5958C94.345 29.4687 93.8185 30.2623 93.1534 30.931C92.4882 31.5998 91.6974 32.1305 90.8265 32.4926C89.9555 32.8547 89.0216 33.0411 88.0784 33.0411Z" fill="white"/>
<path d="M128.899 37.7982V13.8915H123.762L116.786 31.3673L109.788 13.8915H104.646V37.7982H109.408V25.8449L114.204 37.7982H119.341L124.137 25.8449V37.7982H128.899Z" fill="white"/>
<path d="M138.282 28.2454H140.236C142.13 28.2382 143.943 27.4808 145.28 26.1393C146.616 24.7977 147.366 22.9813 147.366 21.0877C147.371 20.145 147.189 19.2106 146.831 18.3384C146.473 17.4662 145.947 16.6732 145.282 16.0051C144.616 15.3369 143.826 14.8067 142.955 14.4449C142.085 14.0832 141.151 13.897 140.209 13.897H133.524V37.7982H138.287L138.282 28.2454ZM138.282 18.6871H140.203C140.839 18.6871 141.449 18.9393 141.899 19.3883C142.349 19.8373 142.602 20.4465 142.604 21.0822C142.596 21.7136 142.34 22.3165 141.891 22.7599C141.441 23.2033 140.835 23.4512 140.203 23.4498H138.282V18.6871Z" fill="white"/>
<path d="M162.546 13.8915H157.47L148.814 37.7982H153.896L156.324 31.1085H163.68L166.114 37.7982H171.19L162.546 13.8915ZM158.07 26.3184L159.991 20.928L161.946 26.3184H158.07Z" fill="white"/>
<path d="M195.075 37.7982V13.8915H190.313V29.8532L180.754 13.8915H175.171V37.7982H179.939V21.8696L189.525 37.7982H195.075Z" fill="white"/>
<path d="M204.391 13.8915H199.062L205.305 26.412V37.7982H210.068V26.412L216.317 13.8915H210.987L207.706 20.5151L204.391 13.8915Z" fill="white"/>
<path d="M137.169 0C137.169 0.0495534 137.213 0.0936009 137.23 0.137648C137.213 0.0936009 137.191 0.0495534 137.169 0Z" fill="#FFFBF8"/>
<path d="M0.236762 21.7154V21.7594V21.8641C0.236762 21.8641 0.236762 21.9026 0.236762 21.9246V21.9797V22.0127C0.236762 22.0788 0.236769 22.1449 0.209239 22.2109C0.18171 22.277 0.209239 22.3321 0.209239 22.3926V22.4642C0.209239 22.5358 0.209229 22.6129 0.1817 22.6844C0.15417 22.756 0.1817 22.7946 0.1817 22.8496V22.9047C0.178979 22.9248 0.178979 22.9452 0.1817 22.9653C0.179191 22.989 0.179191 23.013 0.1817 23.0368C0.179124 23.0477 0.179124 23.059 0.1817 23.0699C0.184679 23.0881 0.184679 23.1067 0.1817 23.1249V23.2185C0.1817 23.2956 0.1817 23.3727 0.1817 23.4663C0.1817 23.5048 0.1817 23.5434 0.1817 23.5819C0.1817 23.6205 0.1817 23.659 0.1817 23.6975V23.7526C0.1817 23.7966 0.1817 23.8407 0.1817 23.8847V23.9453C0.1817 24.0279 0.1817 24.105 0.1817 24.1821V24.4959V24.8813C0.228506 28.7035 1.78639 32.3517 4.51488 35.0287C7.23267 37.7231 10.9069 39.2317 14.7339 39.2243C15.3431 39.2218 15.9517 39.1832 16.5564 39.1087C16.8262 39.0756 17.107 39.0371 17.3657 38.9875C15.3618 37.7733 13.6343 36.1528 12.2948 34.2304C11.8069 33.531 11.3743 32.7947 11.0009 32.028C10.9128 31.8573 10.8357 31.6812 10.7586 31.5105C10.7472 31.4914 10.738 31.471 10.7311 31.4499C9.77915 29.3134 9.28944 27 9.29403 24.6611C9.26178 21.3024 10.2464 18.0126 12.1186 15.2239C12.5677 14.5813 13.0607 13.9705 13.5942 13.3959C15.3174 11.5317 17.4435 10.0854 19.8104 9.16738C20.5277 8.88877 21.2636 8.66065 22.0127 8.48465C23.2762 8.18982 24.5695 8.04202 25.8669 8.04418C28.861 8.03849 31.8013 8.83917 34.3791 10.3622L34.3075 10.2961L34.2139 10.2025H34.1808L34.0928 10.1199C34.0643 10.0878 34.033 10.0583 33.9992 10.0318L33.889 9.93271L33.845 9.88865H33.8175L33.6633 9.751C33.6104 9.69704 33.5533 9.64732 33.4926 9.60233L33.4376 9.5528L33.3219 9.4537L33.2448 9.38763L33.2008 9.35459H33.1678L33.0301 9.24447L32.9255 9.16187L32.5896 8.89759C32.5562 8.87686 32.5248 8.85288 32.496 8.82601L32.4575 8.79849L32.3914 8.75443L32.3033 8.68836H32.2758L32.2262 8.65533H32.1932L32.0941 8.58375H32.0666C31.984 8.52318 31.9014 8.46261 31.8133 8.40756L31.6977 8.33046H31.6701L31.494 8.21486H31.4554L31.3343 8.13226L31.1471 8.01114L30.9544 7.89L30.8498 7.82944H30.8057L30.7451 7.79089H30.7066L30.569 7.70829H30.5304H30.4864L30.3597 7.63671C30.0734 7.47704 29.7816 7.32289 29.4898 7.17423L29.2971 7.08064L29.1209 6.99804C28.9172 6.89893 28.73 6.81636 28.5703 6.73927L28.4437 6.67868H28.4051L28.328 6.64565L28.2454 6.61261H28.2069L27.7059 6.41441L27.6178 6.38137L27.5297 6.34834L26.7643 6.08954L26.6157 6.04552L26.467 5.99595H26.3734L26.0541 5.90787H26.01H25.944H25.4815L24.8373 5.74818L24.4519 5.66561C24.2316 5.61606 24.0169 5.57201 23.7967 5.53347L23.5544 5.48942L23.3121 5.45087H23.202H23.0589L22.3596 5.36279C21.9026 5.31874 21.4511 5.28568 20.9941 5.26917C20.7409 5.26917 20.4876 5.26917 20.2288 5.26917C19.8049 5.26917 19.3754 5.26917 18.9459 5.31322H18.8138C18.3403 5.34626 17.8723 5.39582 17.4043 5.46189L17.1565 5.50044L0.275308 22.3816L0.236762 21.7154Z" fill="white"/>
<path d="M35.5894 28.9869V28.9538C35.5921 28.9264 35.5921 28.8987 35.5894 28.8712V28.7611V28.7116C35.592 28.7007 35.592 28.6894 35.5894 28.6785V28.5519V28.4638C35.5894 28.3812 35.5894 28.2986 35.6169 28.2215C35.6169 28.15 35.617 28.0784 35.6445 28.0068V27.8361V27.7811C35.6472 27.7426 35.6472 27.7039 35.6445 27.6654V27.6324C35.6445 27.5828 35.6445 27.5333 35.6445 27.4782C35.6445 27.4067 35.6445 27.3296 35.6445 27.2415V27.0102V26.9221C35.6445 26.8561 35.6445 26.7955 35.6445 26.7294C35.6445 26.6634 35.6445 26.5532 35.6445 26.4706V26.4211C35.6445 26.3661 35.6445 26.3 35.6445 26.2394V25.843V25.7163C35.5944 21.8938 34.0348 18.2461 31.3058 15.5689C28.6274 12.9268 25.0252 11.4318 21.263 11.4009C20.3803 11.3992 19.4994 11.4785 18.6312 11.6377C20.6337 12.8375 22.3614 14.4452 23.7021 16.3562C25.6636 19.159 26.7116 22.4991 26.7028 25.9201C26.7109 29.3409 25.6629 32.6808 23.7021 35.4839C21.7954 38.2274 19.1106 40.337 15.9938 41.5404C14.0606 42.2796 12.0069 42.653 9.93728 42.6416C6.94249 42.6472 4.0017 41.8445 1.42511 40.3181L1.46364 40.3511L1.50218 40.3951L1.60129 40.4888L1.78299 40.6594L1.90412 40.7751L2.12436 40.9788L2.27301 41.1109H2.30605L2.44921 41.2376V41.2651C2.48716 41.2993 2.52766 41.3306 2.57034 41.3587L2.68596 41.4523L2.77405 41.5239L3.10992 41.7826L3.18149 41.8377L3.26409 41.9038L3.31364 41.9368H3.34116L3.4733 42.0359L3.51736 42.0635L3.58343 42.113L3.68253 42.1846H3.72108L3.97434 42.3608L4.08998 42.4379H4.1175L4.21111 42.4984L4.31021 42.5645L4.46438 42.6636L4.61855 42.7627H4.75068L4.97643 42.9829L5.08655 43.049L5.29578 43.1702L5.46646 43.2637C5.76378 43.4344 6.0666 43.5941 6.36943 43.7428L6.56765 43.8419L6.76034 43.93L7.31094 44.1887L7.44859 44.2493H7.49815L7.68535 44.3264L8.1864 44.5191L8.35157 44.5797L9.11139 44.8384L9.26004 44.888L9.48579 44.9596H9.54636L9.81615 45.0367L9.9538 45.0752C10.5044 45.2294 11.055 45.356 11.6386 45.4551L11.8699 45.4936L12.1011 45.5267L12.3379 45.5597C13.2736 45.6918 14.2174 45.7581 15.1624 45.7579C16.1092 45.7583 17.0549 45.692 17.9925 45.5597L18.2127 45.5267L35.5839 29.0199C35.5873 29.0152 35.5895 29.0097 35.5905 29.004C35.5914 28.9983 35.5911 28.9924 35.5894 28.9869Z" fill="white"/>
</g>
<defs>
<clipPath id="clip0_0_199">
<rect width="228.017" height="45" fill="white"/>
</clipPath>
</defs>
</svg>
